<mxfile host="app.diagrams.net" modified="2024-05-02T10:37:09.029Z" agent="Mozilla/5.0 (Windows NT 10.0; Win64; x64) AppleWebKit/537.36 (KHTML, like Gecko) Chrome/124.0.0.0 Safari/537.36" etag="b2QxXgZ1xBIBH5z2lavC" version="24.3.1" type="device">
  <diagram name="Página-1" id="H6YIQUZw9E2RT2aVXurg">
    <mxGraphModel dx="1134" dy="637" grid="1" gridSize="10" guides="1" tooltips="1" connect="1" arrows="1" fold="1" page="1" pageScale="1" pageWidth="827" pageHeight="1169" math="0" shadow="0">
      <root>
        <mxCell id="0" />
        <mxCell id="1" parent="0" />
        <mxCell id="HGlUlhBQQ_p0EHXVE_Ru-1" value="Usuario" style="rounded=0;whiteSpace=wrap;html=1;" vertex="1" parent="1">
          <mxGeometry x="170" y="80" width="120" height="60" as="geometry" />
        </mxCell>
        <mxCell id="HGlUlhBQQ_p0EHXVE_Ru-2" value="Sesion" style="rounded=0;whiteSpace=wrap;html=1;" vertex="1" parent="1">
          <mxGeometry x="1040" y="80" width="120" height="60" as="geometry" />
        </mxCell>
        <mxCell id="HGlUlhBQQ_p0EHXVE_Ru-3" value="Reserva" style="rounded=0;whiteSpace=wrap;html=1;" vertex="1" parent="1">
          <mxGeometry x="460" y="80" width="120" height="60" as="geometry" />
        </mxCell>
        <mxCell id="HGlUlhBQQ_p0EHXVE_Ru-4" value="Pista" style="rounded=0;whiteSpace=wrap;html=1;" vertex="1" parent="1">
          <mxGeometry x="750" y="80" width="120" height="60" as="geometry" />
        </mxCell>
        <mxCell id="HGlUlhBQQ_p0EHXVE_Ru-5" value="Producto" style="rounded=0;whiteSpace=wrap;html=1;" vertex="1" parent="1">
          <mxGeometry x="170" y="400" width="120" height="60" as="geometry" />
        </mxCell>
        <mxCell id="HGlUlhBQQ_p0EHXVE_Ru-6" value="Pedidos" style="rounded=0;whiteSpace=wrap;html=1;" vertex="1" parent="1">
          <mxGeometry x="170" y="240" width="120" height="60" as="geometry" />
        </mxCell>
        <mxCell id="HGlUlhBQQ_p0EHXVE_Ru-7" value="Categoría" style="rounded=0;whiteSpace=wrap;html=1;" vertex="1" parent="1">
          <mxGeometry x="450" y="400" width="120" height="60" as="geometry" />
        </mxCell>
        <mxCell id="HGlUlhBQQ_p0EHXVE_Ru-8" value="" style="endArrow=none;html=1;rounded=0;entryX=0.5;entryY=1;entryDx=0;entryDy=0;exitX=0.5;exitY=0;exitDx=0;exitDy=0;" edge="1" parent="1" source="HGlUlhBQQ_p0EHXVE_Ru-10">
          <mxGeometry width="50" height="50" relative="1" as="geometry">
            <mxPoint x="229.41" y="170" as="sourcePoint" />
            <mxPoint x="229.41" y="140" as="targetPoint" />
          </mxGeometry>
        </mxCell>
        <mxCell id="HGlUlhBQQ_p0EHXVE_Ru-10" value="Realizan" style="shape=rhombus;perimeter=rhombusPerimeter;whiteSpace=wrap;html=1;align=center;" vertex="1" parent="1">
          <mxGeometry x="170" y="160" width="120" height="60" as="geometry" />
        </mxCell>
        <mxCell id="HGlUlhBQQ_p0EHXVE_Ru-11" value="Contienen" style="shape=rhombus;perimeter=rhombusPerimeter;whiteSpace=wrap;html=1;align=center;" vertex="1" parent="1">
          <mxGeometry x="170" y="320" width="120" height="60" as="geometry" />
        </mxCell>
        <mxCell id="HGlUlhBQQ_p0EHXVE_Ru-12" value="Tiene" style="shape=rhombus;perimeter=rhombusPerimeter;whiteSpace=wrap;html=1;align=center;" vertex="1" parent="1">
          <mxGeometry x="310" y="400" width="120" height="60" as="geometry" />
        </mxCell>
        <mxCell id="HGlUlhBQQ_p0EHXVE_Ru-13" value="Hacen" style="shape=rhombus;perimeter=rhombusPerimeter;whiteSpace=wrap;html=1;align=center;" vertex="1" parent="1">
          <mxGeometry x="310" y="80" width="120" height="60" as="geometry" />
        </mxCell>
        <mxCell id="HGlUlhBQQ_p0EHXVE_Ru-14" value="Contienen" style="shape=rhombus;perimeter=rhombusPerimeter;whiteSpace=wrap;html=1;align=center;" vertex="1" parent="1">
          <mxGeometry x="600" y="80" width="120" height="60" as="geometry" />
        </mxCell>
        <mxCell id="HGlUlhBQQ_p0EHXVE_Ru-15" value="Tienen" style="shape=rhombus;perimeter=rhombusPerimeter;whiteSpace=wrap;html=1;align=center;" vertex="1" parent="1">
          <mxGeometry x="890" y="80" width="120" height="60" as="geometry" />
        </mxCell>
        <mxCell id="HGlUlhBQQ_p0EHXVE_Ru-16" value="" style="endArrow=none;html=1;rounded=0;entryX=0.5;entryY=1;entryDx=0;entryDy=0;exitX=0.5;exitY=0;exitDx=0;exitDy=0;" edge="1" parent="1">
          <mxGeometry width="50" height="50" relative="1" as="geometry">
            <mxPoint x="230.11" y="240" as="sourcePoint" />
            <mxPoint x="229.51999999999998" y="220" as="targetPoint" />
          </mxGeometry>
        </mxCell>
        <mxCell id="HGlUlhBQQ_p0EHXVE_Ru-17" value="" style="endArrow=none;html=1;rounded=0;entryX=0.5;entryY=1;entryDx=0;entryDy=0;exitX=0.5;exitY=0;exitDx=0;exitDy=0;" edge="1" parent="1">
          <mxGeometry width="50" height="50" relative="1" as="geometry">
            <mxPoint x="230.3" y="320" as="sourcePoint" />
            <mxPoint x="229.70999999999998" y="300" as="targetPoint" />
          </mxGeometry>
        </mxCell>
        <mxCell id="HGlUlhBQQ_p0EHXVE_Ru-18" value="" style="endArrow=none;html=1;rounded=0;entryX=0.5;entryY=1;entryDx=0;entryDy=0;exitX=0.5;exitY=0;exitDx=0;exitDy=0;" edge="1" parent="1">
          <mxGeometry width="50" height="50" relative="1" as="geometry">
            <mxPoint x="230.3" y="400" as="sourcePoint" />
            <mxPoint x="229.70999999999998" y="380" as="targetPoint" />
          </mxGeometry>
        </mxCell>
        <mxCell id="HGlUlhBQQ_p0EHXVE_Ru-19" value="" style="endArrow=none;html=1;rounded=0;entryX=0.5;entryY=1;entryDx=0;entryDy=0;exitX=1;exitY=0.5;exitDx=0;exitDy=0;" edge="1" parent="1" source="HGlUlhBQQ_p0EHXVE_Ru-5">
          <mxGeometry width="50" height="50" relative="1" as="geometry">
            <mxPoint x="310" y="450" as="sourcePoint" />
            <mxPoint x="309.40999999999997" y="430" as="targetPoint" />
          </mxGeometry>
        </mxCell>
        <mxCell id="HGlUlhBQQ_p0EHXVE_Ru-20" value="" style="endArrow=none;html=1;rounded=0;entryX=0.5;entryY=1;entryDx=0;entryDy=0;exitX=1;exitY=0.5;exitDx=0;exitDy=0;" edge="1" parent="1">
          <mxGeometry width="50" height="50" relative="1" as="geometry">
            <mxPoint x="430.59000000000003" y="429.47" as="sourcePoint" />
            <mxPoint x="450" y="429.47" as="targetPoint" />
          </mxGeometry>
        </mxCell>
        <mxCell id="HGlUlhBQQ_p0EHXVE_Ru-21" value="" style="endArrow=none;html=1;rounded=0;entryX=0.5;entryY=1;entryDx=0;entryDy=0;exitX=1;exitY=0.5;exitDx=0;exitDy=0;" edge="1" parent="1">
          <mxGeometry width="50" height="50" relative="1" as="geometry">
            <mxPoint x="290.59" y="109.51999999999998" as="sourcePoint" />
            <mxPoint x="309.99999999999994" y="109.51999999999998" as="targetPoint" />
          </mxGeometry>
        </mxCell>
        <mxCell id="HGlUlhBQQ_p0EHXVE_Ru-22" value="" style="endArrow=none;html=1;rounded=0;entryX=0;entryY=0.5;entryDx=0;entryDy=0;exitX=1;exitY=0.5;exitDx=0;exitDy=0;" edge="1" parent="1" target="HGlUlhBQQ_p0EHXVE_Ru-3">
          <mxGeometry width="50" height="50" relative="1" as="geometry">
            <mxPoint x="430" y="109.51999999999998" as="sourcePoint" />
            <mxPoint x="449.40999999999997" y="109.51999999999998" as="targetPoint" />
          </mxGeometry>
        </mxCell>
        <mxCell id="HGlUlhBQQ_p0EHXVE_Ru-23" value="" style="endArrow=none;html=1;rounded=0;entryX=0.5;entryY=1;entryDx=0;entryDy=0;exitX=1;exitY=0.5;exitDx=0;exitDy=0;" edge="1" parent="1">
          <mxGeometry width="50" height="50" relative="1" as="geometry">
            <mxPoint x="580.5899999999999" y="109.51999999999998" as="sourcePoint" />
            <mxPoint x="600" y="109.51999999999998" as="targetPoint" />
          </mxGeometry>
        </mxCell>
        <mxCell id="HGlUlhBQQ_p0EHXVE_Ru-24" value="" style="endArrow=none;html=1;rounded=0;entryX=0;entryY=0.5;entryDx=0;entryDy=0;exitX=1;exitY=0.5;exitDx=0;exitDy=0;" edge="1" parent="1" target="HGlUlhBQQ_p0EHXVE_Ru-4">
          <mxGeometry width="50" height="50" relative="1" as="geometry">
            <mxPoint x="720" y="109.51999999999998" as="sourcePoint" />
            <mxPoint x="739.41" y="109.51999999999998" as="targetPoint" />
          </mxGeometry>
        </mxCell>
        <mxCell id="HGlUlhBQQ_p0EHXVE_Ru-25" value="" style="endArrow=none;html=1;rounded=0;exitX=1;exitY=0.5;exitDx=0;exitDy=0;" edge="1" parent="1">
          <mxGeometry width="50" height="50" relative="1" as="geometry">
            <mxPoint x="870" y="109.28999999999998" as="sourcePoint" />
            <mxPoint x="890" y="110" as="targetPoint" />
          </mxGeometry>
        </mxCell>
        <mxCell id="HGlUlhBQQ_p0EHXVE_Ru-26" value="" style="endArrow=none;html=1;rounded=0;entryX=0;entryY=0.5;entryDx=0;entryDy=0;exitX=1;exitY=0.5;exitDx=0;exitDy=0;" edge="1" parent="1">
          <mxGeometry width="50" height="50" relative="1" as="geometry">
            <mxPoint x="1010" y="109.74999999999999" as="sourcePoint" />
            <mxPoint x="1040" y="110.23" as="targetPoint" />
          </mxGeometry>
        </mxCell>
      </root>
    </mxGraphModel>
  </diagram>
</mxfile>
